<?xml version="1.0" encoding="UTF-8"?> <svg xmlns="http://www.w3.org/2000/svg" width="238" height="90" viewBox="0 0 238 90" fill="none"><g clip-path="url(#clip0_36_64)"><path d="M109.371 12.0432C114.521 12.0432 117.32 13.9998 117.32 18.2813V19.9532C117.32 21.9911 116.508 23.6224 114.602 24.7633V25.6196C116.549 26.5573 117.886 28.1072 117.886 31.0014V32.5107C117.886 36.7922 115.33 39.3587 110.018 39.3587H100.405V12.0432H109.371ZM105.394 23.6607H108.842C111.032 23.6607 112.291 22.5604 112.291 20.5632V18.9725C112.291 17.0566 111.277 15.997 108.68 15.997H105.394V23.6607ZM105.394 35.4001H109.409C111.924 35.4001 112.857 34.0559 112.857 31.8936V30.6307C112.857 28.2651 111.275 27.3298 109.247 27.3298H105.394V35.4001Z" fill="white"></path><path d="M130.869 12.0432C136.224 12.0432 139.185 14.6528 139.185 19.3816V21.5414C139.185 24.6796 137.928 26.8826 135.655 28.0642L140.401 39.3563H135.086L130.745 29.0831H127.256V39.3563H122.146V12.0432H130.867H130.869ZM127.259 24.8829H130.422C132.775 24.8829 134.153 23.6607 134.153 21.2951V19.6638C134.153 17.5039 132.775 16.2386 130.422 16.2386H127.259V24.8805V24.8829Z" fill="white"></path><path d="M152.408 11.7155C158.087 11.7155 161.454 14.9757 161.454 20.6445V30.9177C161.454 36.4621 158.087 39.6816 152.408 39.6816H152.003C146.325 39.6816 142.917 36.4621 142.917 30.9177V20.6445C142.917 14.9781 146.325 11.7155 152.003 11.7155H152.408ZM148.069 20.9698V30.3867C148.069 33.2402 149.083 35.0748 152.003 35.0748H152.408C155.207 35.0748 156.302 33.2402 156.302 30.3867V20.9698C156.302 18.1569 155.207 16.3223 152.408 16.3223H152.003C149.083 16.3223 148.069 18.1569 148.069 20.9698Z" fill="white"></path><path d="M168.84 12.0432L171.191 33.1182H172.407L175.206 12.0432H182.67L185.347 33.1182H186.644L189.079 12.0432H193.296L190.093 39.3563H181.858L179.221 18.2406H178.045L175.206 39.3563H167.133L164.091 12.0432H168.837H168.84Z" fill="white"></path><path d="M202.75 12.0432L210.985 30.877H211.715V12.0432H216.178V39.3563H209.971L201.736 20.5225H201.005V39.3563H196.543V12.0432H202.75Z" fill="white"></path><path d="M229.239 11.7155C234.432 11.7155 237.636 14.4471 237.636 18.8506V21.3381H232.486V18.8506C232.486 17.2193 231.674 15.7124 229.199 15.7124H228.875C226.44 15.7124 225.672 17.0973 225.672 18.5659V19.1782C225.672 20.9315 226.766 21.9505 230.781 23.7444C236.056 26.1076 238.002 28.3105 238.002 32.061V32.5514C238.002 36.3832 235.446 39.6864 229.282 39.6864H228.875C222.954 39.6864 220.074 36.3425 220.074 31.9008V29.7409H225.227V31.9008C225.227 34.142 226.483 35.6919 228.958 35.6919H229.282C231.757 35.6919 232.893 34.2233 232.893 32.5944V32.2285C232.893 30.6378 231.919 29.2936 227.133 27.2557C222.468 25.3398 220.521 23.1392 220.521 19.5107V18.6544C220.521 14.3729 223.32 11.7251 228.837 11.7251H229.242L229.239 11.7155Z" fill="white"></path><path d="M110.358 44.5874C118.224 44.5874 120.894 47.9695 120.894 53.6383V57.1688C120.894 62.7874 118.127 66.2197 110.358 66.2197H106.522V77.9042H100.405V44.5898H110.358V44.5874ZM106.522 60.8954H110.065C113.414 60.8954 114.726 59.5033 114.726 56.9176V53.9349C114.726 51.1508 113.414 49.907 110.065 49.907H106.522V60.8954Z" fill="white"></path><path d="M140.703 44.5874V49.907H135.46V72.5822H140.703V77.9018H124.1V72.5822H129.343V49.907H124.1V44.5874H140.703Z" fill="white"></path><path d="M151.918 44.5874V72.5822H163.23V77.9018H145.801V44.5874H151.918Z" fill="white"></path><path d="M182.701 44.5874V49.907H177.458V72.5822H182.701V77.9018H166.098V72.5822H171.341V49.907H166.098V44.5874H182.701Z" fill="white"></path><path d="M195.227 44.5874L205.082 67.5592H205.956V44.5874H211.296V77.9018H203.868L194.013 54.93H193.139V77.9018H187.799V44.5874H195.227Z" fill="white"></path><path d="M227.514 44.188C234.894 44.188 237.855 48.5627 237.855 55.5256V58.0107H231.688V55.5256C231.688 51.6961 230.67 49.8065 227.464 49.8065H226.978C223.822 49.8065 222.609 51.6961 222.609 55.5256V66.8632C222.609 71.0394 224.065 72.6803 226.978 72.6803H227.464C230.474 72.6803 231.881 71.0394 231.881 66.8632V63.3829H237.998V77.9018H233.24V75.4644H232.074C230.715 77.354 228.675 78.2988 225.907 78.2988H225.422C219.403 78.2988 216.44 74.4216 216.44 66.8632V55.5256C216.44 48.5651 219.693 44.188 227.023 44.188H227.509H227.514Z" fill="white"></path><path d="M51.7745 64.5932L45.477 77.1388C45.1534 77.7822 44.2371 77.7822 43.9134 77.1388L37.6159 64.5932C36.6687 62.7036 36.1736 60.6179 36.1736 58.5011V7.78802H53.2144V58.5011C53.2144 60.6179 52.7194 62.7036 51.7721 64.5932H51.7745Z" fill="url(#paint0_linear_36_64)"></path><path d="M2.42282 48.5005C3.08922 46.6133 4.1864 44.8888 5.44066 43.2862C6.71158 41.6908 8.20146 40.2437 9.85794 38.964C13.1757 36.4143 17.2074 34.6538 21.4271 33.8143C23.5382 33.3813 25.6873 33.2283 27.8341 33.2043C28.8979 33.2402 29.9785 33.2378 31.0304 33.367C31.5588 33.422 32.0943 33.4603 32.6179 33.532L34.1863 33.7856L34.9717 33.9171L35.7404 34.087L37.2803 34.441C38.2966 34.6969 39.2914 35.015 40.2958 35.3116C41.2716 35.6584 42.2545 36.0053 43.2208 36.376L46.0292 37.5791C49.2136 39.0382 52.4457 40.2604 55.7253 41.1574C57.3651 41.631 59.0168 41.9515 60.6805 42.2433C62.3441 42.4993 64.0196 42.6547 65.7118 42.7265C69.0819 42.7983 72.5186 42.473 75.9505 41.5425C79.3825 40.6144 82.8192 39.2008 86.1346 37.0816C85.3206 38.9114 84.0949 40.5451 82.7288 42.0448C81.3484 43.5397 79.7681 44.8768 78.0473 46.0441C74.5987 48.3714 70.5551 49.9285 66.3591 50.6628C64.26 51.012 62.1299 51.1675 60.0022 51.1532C57.8863 51.0958 55.761 50.9331 53.6975 50.5408C49.5516 49.8137 45.5698 48.4934 41.8475 46.7784L39.4247 45.7044C38.6274 45.3648 37.8206 45.0682 37.0233 44.7333L34.6028 43.8794L33.3866 43.5039L32.7773 43.3101L32.1657 43.1499L30.9424 42.827C30.5354 42.7193 30.126 42.6476 29.7143 42.5543C28.8932 42.3558 28.0745 42.2433 27.2486 42.0974C25.6016 41.8726 23.9404 41.7099 22.2744 41.7028C18.9495 41.7028 15.5628 42.1692 12.2165 43.3029C8.87024 44.4319 5.55252 46.111 2.42282 48.4981V48.5005Z" fill="url(#paint1_linear_36_64)"></path><path d="M72.9875 0.143513H59.1454L49.4921 9.84506H72.9898C76.7836 9.84506 79.8704 12.9474 79.8704 16.76V73.5246C79.8704 77.3373 76.7836 80.4396 72.9898 80.4396H16.5053C12.7116 80.4396 9.62471 77.3373 9.62471 73.5246V49.9094L-0.0309448 59.6157V73.527C-0.0309448 82.6904 7.38751 90.1459 16.5029 90.1459H72.9851C82.1029 90.1459 89.5213 82.6904 89.5213 73.527V16.7624C89.5213 7.59906 82.1029 0.145905 72.9851 0.145905L72.9875 0.143513Z" fill="url(#paint2_linear_36_64)"></path><path d="M9.62471 16.7624C9.62471 12.9497 12.7116 9.84745 16.5053 9.84745H49.4921L59.1454 0.143513H16.5053C7.38751 0.143513 -0.0309448 7.59906 -0.0309448 16.7624V59.6157L9.62233 49.9142V16.7624H9.62471Z" fill="url(#paint3_linear_36_64)"></path></g><defs><linearGradient id="paint0_linear_36_64" x1="36.176" y1="42.705" x2="53.2168" y2="42.705" gradientUnits="userSpaceOnUse"><stop stop-color="#DED9D6"></stop><stop offset="0.04" stop-color="#CFCBC9"></stop><stop offset="0.11" stop-color="#A8A8A7"></stop><stop offset="0.21" stop-color="#697071"></stop><stop offset="0.26" stop-color="#465053"></stop><stop offset="0.37" stop-color="#878D8E"></stop><stop offset="0.46" stop-color="#B7B9BA"></stop><stop offset="0.53" stop-color="#D4D5D5"></stop><stop offset="0.57" stop-color="#E0E0E0"></stop><stop offset="0.63" stop-color="#D6D7D7"></stop><stop offset="0.73" stop-color="#BCBFC1"></stop><stop offset="0.86" stop-color="#91989D"></stop><stop offset="0.88" stop-color="#8B9298"></stop><stop offset="1" stop-color="#A7A9AC"></stop></linearGradient><linearGradient id="paint1_linear_36_64" x1="-1.74932" y1="42.1811" x2="90.0663" y2="42.1811" gradientUnits="userSpaceOnUse"><stop stop-color="#E5E2DF"></stop><stop offset="0.21" stop-color="#DED9D6"></stop><stop offset="0.25" stop-color="#CFCBC9"></stop><stop offset="0.32" stop-color="#A8A8A7"></stop><stop offset="0.41" stop-color="#697071"></stop><stop offset="0.47" stop-color="#465053"></stop><stop offset="0.5" stop-color="#878D8E"></stop><stop offset="0.53" stop-color="#B7B9BA"></stop><stop offset="0.56" stop-color="#D4D5D5"></stop><stop offset="0.57" stop-color="#E0E0E0"></stop><stop offset="0.63" stop-color="#D6D7D7"></stop><stop offset="0.73" stop-color="#BCBFC1"></stop><stop offset="0.86" stop-color="#91989D"></stop><stop offset="0.88" stop-color="#8B9298"></stop><stop offset="1" stop-color="#A7A9AC"></stop></linearGradient><linearGradient id="paint2_linear_36_64" x1="-0.0309448" y1="45.1447" x2="89.5237" y2="45.1447" gradientUnits="userSpaceOnUse"><stop stop-color="#DED9D6"></stop><stop offset="0.04" stop-color="#CFCBC9"></stop><stop offset="0.11" stop-color="#A8A8A7"></stop><stop offset="0.21" stop-color="#697071"></stop><stop offset="0.26" stop-color="#465053"></stop><stop offset="0.37" stop-color="#878D8E"></stop><stop offset="0.46" stop-color="#B7B9BA"></stop><stop offset="0.53" stop-color="#D4D5D5"></stop><stop offset="0.57" stop-color="#E0E0E0"></stop><stop offset="0.63" stop-color="#D6D7D7"></stop><stop offset="0.73" stop-color="#BCBFC1"></stop><stop offset="0.86" stop-color="#91989D"></stop><stop offset="0.88" stop-color="#8B9298"></stop><stop offset="1" stop-color="#A7A9AC"></stop></linearGradient><linearGradient id="paint3_linear_36_64" x1="29.5572" y1="0.143513" x2="29.5572" y2="90.1459" gradientUnits="userSpaceOnUse"><stop stop-color="#DED9D6"></stop><stop offset="0.04" stop-color="#CFCBC9"></stop><stop offset="0.11" stop-color="#A8A8A7"></stop><stop offset="0.21" stop-color="#697071"></stop><stop offset="0.26" stop-color="#465053"></stop><stop offset="0.37" stop-color="#878D8E"></stop><stop offset="0.46" stop-color="#B7B9BA"></stop><stop offset="0.53" stop-color="#D4D5D5"></stop><stop offset="0.57" stop-color="#E0E0E0"></stop><stop offset="0.63" stop-color="#D6D7D7"></stop><stop offset="0.73" stop-color="#BCBFC1"></stop><stop offset="0.86" stop-color="#91989D"></stop><stop offset="0.88" stop-color="#8B9298"></stop><stop offset="1" stop-color="#A7A9AC"></stop></linearGradient><clipPath id="clip0_36_64"><rect width="238" height="90" fill="white"></rect></clipPath></defs></svg> 