<?xml version="1.0" encoding="UTF-8"?> <svg xmlns="http://www.w3.org/2000/svg" width="130" height="29" viewBox="0 0 130 29" fill="none"><g clip-path="url(#clip0_1450_3171)"><path d="M38.0039 15.0518H41.3589C46.0946 15.0518 48.1729 17.7542 47.4307 21.9676C46.3024 28.404 41.7301 28.9997 39.1915 28.9997H35.5544L37.9891 15.0518H38.0039ZM40.3198 25.6289C42.22 25.6144 42.9177 23.4641 43.1552 22.1565C43.4224 20.6454 43.467 18.5242 41.5668 18.5242L40.3198 25.6289Z" fill="white"></path><path d="M49.687 15.0518H57.4214L56.8424 18.3499H53.2647L52.9233 20.2967H56.1299L55.5509 23.5948H52.3443L51.9732 25.7161H55.5509L54.9719 29.0142H47.2375L49.6722 15.0663L49.687 15.0518Z" fill="white"></path><path d="M56.9316 28.9997L59.3663 15.0518H63.5378L61.6821 25.7016H64.7996L64.2207 28.9997H56.9316Z" fill="white"></path><path d="M65.438 28.9997L67.2788 18.4516H64.9927L65.5865 15.0518H74.4194L73.8256 18.4516H71.4355L69.5947 28.9997H65.4232H65.438Z" fill="white"></path><path d="M78.6206 28.9997V27.1981H75.8297L75.1616 28.9997H70.8713L77.0024 15.0518H82.0795L82.9108 28.9997H78.6057H78.6206ZM78.6503 24.2487L78.769 21.0087C78.7987 20.1369 78.8729 19.2507 78.9175 18.3789H78.8729C78.6057 19.2507 78.3385 20.1369 78.0268 21.0087L76.8837 24.2487H78.6354H78.6503Z" fill="white"></path><path fill-rule="evenodd" clip-rule="evenodd" d="M28.3842 22.6221L32.3776 29.0003H24.376L28.3842 22.6221Z" fill="#ED1B2E"></path><path fill-rule="evenodd" clip-rule="evenodd" d="M22.268 29.0001H12.4404L23.3814 11.5361L28.31 19.3964L22.3422 29.0001H22.268Z" fill="#ED1B2E"></path><path fill-rule="evenodd" clip-rule="evenodd" d="M10.0354 29H0L18.1112 0L23.1586 8.02004L10.1096 29H10.0354Z" fill="#ED1B2E"></path><path d="M88.552 29.0003L90.8233 15.0088H94.1932C96.3161 15.0088 97.7709 15.2848 98.5726 15.8224C99.3742 16.36 99.775 17.2899 99.775 18.5975C99.775 19.7453 99.5226 20.6751 99.0179 21.4161C98.5132 22.1571 97.7858 22.6365 96.8357 22.869L98.6022 29.0003H94.3713L93.4658 23.3485L92.5602 29.0003H88.5668H88.552ZM93.8072 21.2418H94.0299C94.6386 21.2418 95.0988 21.0529 95.4254 20.6751C95.752 20.2974 95.9153 19.7598 95.9153 19.0624C95.9153 18.6556 95.8113 18.365 95.6035 18.1761C95.3957 17.9872 95.0691 17.8855 94.6386 17.8855C94.6089 17.8855 94.5643 17.8855 94.505 17.8855C94.4456 17.8855 94.3862 17.8855 94.3565 17.8855L93.8221 21.2272L93.8072 21.2418Z" fill="white"></path><path d="M99.3445 29.0003L101.616 15.0088H108.697L108.148 18.4086H105.06L104.763 20.1957H107.554L107.034 23.4792H104.243L103.917 25.4116H107.019L106.426 29.0293H99.3445V29.0003Z" fill="white"></path><path d="M108.014 29.0003L110.3 15.0088H113.997L115.273 22.5203L116.61 15.0088H119.965L117.723 29.0003H114.056L112.69 21.7503L111.429 29.0003H108.014Z" fill="white"></path><path d="M125.368 29.0003H121.345L123.038 18.5539H120.662L121.241 15.0088H130.015L129.436 18.5539H127.061L125.368 29.0003Z" fill="white"></path></g><defs><clipPath id="clip0_1450_3171"><rect width="130" height="29" fill="white"></rect></clipPath></defs></svg> 