<?xml version="1.0" encoding="UTF-8"?> <svg xmlns="http://www.w3.org/2000/svg" width="168" height="30" viewBox="0 0 168 30" fill="none"><path d="M36.9915 15.4024H40.2534C44.8575 15.4024 46.8926 18.0753 46.1709 22.2572C45.074 28.6378 40.6286 29.227 38.1606 29.227H34.6245L36.9915 15.4168V15.4024ZM39.2575 25.893C41.1049 25.8786 41.7977 23.7517 42.0142 22.444C42.274 20.9351 42.3173 18.8513 40.4699 18.8513L39.2575 25.893Z" fill="white"></path><path d="M48.379 15.4024H55.913L55.3501 18.6645H51.8718L51.5398 20.5902H54.6574L54.0945 23.8523H50.9769L50.6161 25.9648H54.0945L53.5316 29.227H45.9976L48.3646 15.4168L48.379 15.4024Z" fill="white"></path><path d="M55.4226 29.227L57.7896 15.4168H61.8453L60.0268 25.9648H63.0721L62.5092 29.227H55.4082H55.4226Z" fill="white"></path><path d="M63.7069 29.227L65.4966 18.7795H63.2739L63.8512 15.4024H72.4533L71.876 18.7795H69.5523L67.7626 29.227H63.7069Z" fill="white"></path><path d="M76.5233 29.227V27.445H73.8099L73.1604 29.227H68.9893L74.9645 15.4168H79.915L80.7233 29.227H76.5233ZM76.5666 24.5134L76.682 21.3087C76.7109 20.4465 76.7831 19.5699 76.8264 18.7076H76.7831C76.5088 19.5699 76.2635 20.4465 75.9604 21.3087L74.8491 24.5134H76.5521H76.5666Z" fill="white"></path><path d="M86.2083 29.227L88.4165 15.3593H91.6928C93.7567 15.3593 95.1712 15.6323 95.9506 16.164C96.7299 16.6957 97.1196 17.6155 97.1196 18.9232C97.1196 20.0585 96.8743 20.9926 96.3835 21.7111C95.8928 22.444 95.1856 22.9182 94.2475 23.1482L95.965 29.2126H91.8516L90.9712 23.608L90.0908 29.2126H86.1938L86.2083 29.227ZM91.332 21.5387H91.5485C92.1402 21.5387 92.5877 21.3518 92.9196 20.9782C93.2371 20.6046 93.3959 20.0729 93.3959 19.3831C93.3959 18.9807 93.2949 18.6933 93.0928 18.5064C92.8908 18.3196 92.5732 18.219 92.1547 18.219C92.1258 18.219 92.0825 18.219 92.0248 18.219C91.967 18.219 91.9093 18.219 91.8804 18.219L91.3609 21.5243L91.332 21.5387Z" fill="white"></path><path d="M96.7153 29.227L98.9236 15.3593H105.823L105.289 18.722H102.286L101.998 20.4896H104.711L104.206 23.7374H101.493L101.175 25.6487H104.192L103.614 29.227H96.7153Z" fill="white"></path><path d="M113.92 18.9232C113.689 18.8082 113.472 18.722 113.27 18.6645C113.068 18.607 112.866 18.5927 112.65 18.5927C111.74 18.5927 111.004 19.0238 110.456 19.886C109.907 20.7483 109.633 21.8979 109.633 23.335C109.633 24.2547 109.806 24.9301 110.138 25.3756C110.47 25.8211 110.975 26.0367 111.668 26.0367C111.827 26.0367 112.014 26.0223 112.202 25.9792C112.39 25.9505 112.606 25.893 112.823 25.8211L112.231 29.1695C111.957 29.2701 111.668 29.3563 111.365 29.4138C111.047 29.4713 110.701 29.4856 110.297 29.4856C108.724 29.4856 107.526 29.0258 106.703 28.1204C105.88 27.2151 105.462 25.8786 105.462 24.1541C105.462 21.4381 106.097 19.2537 107.353 17.6011C108.608 15.9485 110.283 15.115 112.361 15.115C112.736 15.115 113.111 15.1437 113.472 15.2156C113.833 15.2874 114.194 15.3736 114.555 15.503L113.949 18.9376L113.92 18.9232Z" fill="white"></path><path d="M115.175 15.3593H119.274L119.664 19.613L121.381 15.3593H125.495L120.948 23.6655L120.068 29.227H116.185L117.08 23.6655L115.161 15.3593H115.175Z" fill="white"></path><path d="M132.134 18.9232C131.903 18.8082 131.687 18.722 131.485 18.6645C131.282 18.607 131.08 18.5927 130.864 18.5927C129.955 18.5927 129.219 19.0238 128.67 19.886C128.122 20.7483 127.847 21.8979 127.847 23.335C127.847 24.2547 128.021 24.9301 128.353 25.3756C128.685 25.8211 129.19 26.0367 129.882 26.0367C130.041 26.0367 130.229 26.0223 130.416 25.9792C130.604 25.9505 130.821 25.893 131.037 25.8211L130.445 29.1695C130.171 29.2701 129.882 29.3563 129.579 29.4138C129.262 29.4713 128.915 29.4856 128.511 29.4856C126.938 29.4856 125.74 29.0258 124.918 28.1204C124.095 27.2151 123.676 25.8786 123.676 24.1541C123.676 21.4381 124.311 19.2537 125.567 17.6011C126.823 15.9485 128.497 15.115 130.575 15.115C130.95 15.115 131.326 15.1437 131.687 15.2156C132.047 15.2874 132.408 15.3736 132.769 15.503L132.163 18.9376L132.134 18.9232Z" fill="white"></path><path d="M131.629 29.227L133.837 15.3593H137.734L136.074 25.7924H138.932L138.383 29.227H131.614H131.629Z" fill="white"></path><path d="M139.639 29.227L141.847 15.3593H145.744L143.536 29.227H139.654H139.639Z" fill="white"></path><path d="M145.427 29.227L147.649 15.3593H151.243L152.499 22.8033L153.812 15.3593H157.074L154.895 29.227H151.315L149.988 22.0416L148.761 29.227H145.441H145.427Z" fill="white"></path><path d="M162.732 21.2081H167.711C167.596 24.0248 167.062 26.1085 166.095 27.4594C165.128 28.8102 163.685 29.5 161.78 29.5C160.307 29.5 159.182 29.0545 158.402 28.1492C157.623 27.2438 157.248 25.9361 157.248 24.226C157.248 22.8895 157.406 21.6249 157.724 20.4034C158.041 19.1962 158.489 18.1615 159.066 17.3137C159.571 16.5664 160.192 16.0203 160.957 15.6323C161.722 15.2443 162.588 15.0719 163.555 15.0719C164.782 15.0719 165.763 15.3593 166.542 15.9197C167.307 16.4802 167.798 17.2993 168 18.3484L164.421 19.6705C164.32 19.2393 164.19 18.9232 164.031 18.7507C163.872 18.5783 163.641 18.4921 163.353 18.4921C163.064 18.4921 162.79 18.5927 162.573 18.8082C162.357 19.0238 162.155 19.3399 161.996 19.7711C161.78 20.389 161.592 21.1794 161.419 22.1422C161.26 23.1051 161.173 23.9386 161.173 24.6283C161.173 25.1601 161.246 25.5337 161.404 25.7493C161.549 25.9648 161.808 26.0798 162.169 26.0798C162.602 26.0798 162.963 25.893 163.223 25.5193C163.483 25.1457 163.641 24.614 163.685 23.9242H162.357L162.732 21.1794V21.2081Z" fill="white"></path><path fill-rule="evenodd" clip-rule="evenodd" d="M27.6249 22.9039L31.5218 29.227H23.728L27.6249 22.9039Z" fill="#ED1B2E"></path><path fill-rule="evenodd" clip-rule="evenodd" d="M21.6784 29.227H12.1094L22.7609 11.9247L27.5671 19.7136L21.7506 29.227H21.6784Z" fill="#ED1B2E"></path><path fill-rule="evenodd" clip-rule="evenodd" d="M9.77113 29.227H0L17.6371 0.5L22.5443 8.44698L9.82887 29.227H9.77113Z" fill="#ED1B2E"></path></svg> 